# xmcd
#
# Track frame offsets:
#	200
#	16317
#	30140
#	43187
#	54057
#	65162
#	78437
#	89412
#	104155
#	117235
#	124562
#	151150
#
# Disc length: 2188 seconds
#
# Revision: 2
# Processed by: cddbd v1.4PL0 Copyright (c) Steve Scherf et al.
# Submitted via: CDmax 1.9
#
DISCID=90088a0c
DTITLE=Front Porch String Band
DYEAR=1991
DGENRE=Bluegrass
TTITLE0=If You're Ever In Oklahoma
TTITLE1=Hearts Against the Wind
TTITLE2=Living In our Country World
TTITLE3=Come Unto Me
TTITLE4=The Girl I Love
TTITLE5=The Singer
TTITLE6=Go My Way
TTITLE7=Hills of Alabam
TTITLE8=Back To My Love
TTITLE9=Grant's Mill
TTITLE10=Wabash Cannonball
TTITLE11=Daddy Keeps On Plowin'
EXTD=
EXTT0=
EXTT1=
EXTT2=
EXTT3=
EXTT4=
EXTT5=
EXTT6=
EXTT7=
EXTT8=
EXTT9=
EXTT10=
EXTT11=
PLAYORDER=
